<?xml version="1.0" standalone="no"?>
<!DOCTYPE svg PUBLIC "-//W3C//DTD SVG 1.1//EN" "http://www.w3.org/Graphics/SVG/1.1/DTD/svg11.dtd">
<svg xmlns="http://www.w3.org/2000/svg" xmlns:xlink="http://www.w3.org/1999/xlink" viewBox="0 0 348.13 78.53" width="348.1300048828125" height="78.52999877929688"><defs><style>.cls-1{fill:url(#未命名的渐变_2);}.cls-2{fill:url(#未命名的渐变_10);}.cls-3{fill:#3a3a47;}</style><linearGradient id="未命名的渐变_2" x1="68.02" y1="19.63" x2="34.01" y2="39.27" gradientUnits="userSpaceOnUse"><stop offset="0" stop-color="#c8fb56"/><stop offset="1" stop-color="#7fe58d"/></linearGradient><linearGradient id="未命名的渐变_10" x1="34.01" y1="39.27" x2="0" y2="58.9" gradientUnits="userSpaceOnUse"><stop offset="0" stop-color="#b2d0fa"/><stop offset="1" stop-color="#63a9ff"/></linearGradient></defs><g id="图层_2" data-name="图层 2"><g id="图层_1-2" data-name="图层 1"><polygon id="Shape" class="cls-1" points="34.01 0 68.02 19.63 68.02 58.9 34.01 39.27 34.01 0"/><polygon id="Shape-2" data-name="Shape" class="cls-2" points="0 19.63 34.01 39.27 34.01 78.53 0 58.9 0 19.63"/><path class="cls-3" d="M96.38,24.41h22.84a12.53,12.53,0,0,1,9.78,4c1.43,1.51,2.67,4.38,2.62,8.57a13.5,13.5,0,0,1-7,11.68s8.1,19.31,8.1,19.29h-9.38c.37.38-6.46-17.94-6.29-17.77H104.75V67.91H96.38Zm8.37,4.89V44.87H116.4A7.74,7.74,0,0,0,122,42a7.53,7.53,0,0,0,1.87-5.6,7.71,7.71,0,0,0-1.66-5.1q-1.65-2-5.39-2Z"/><path class="cls-3" d="M151.81,34.5c5.07.08,8.13,1.23,10.54,3.22s3.32,4.87,3.32,8.65V59.71c0,2.8.18,6.1,1.06,8.2h-8L158,64.09a23.8,23.8,0,0,1-5.91,3.53,18.49,18.49,0,0,1-6.36,1c-3.47,0-6.12-.8-7.94-2.42a8.5,8.5,0,0,1-2.73-6.71,9.13,9.13,0,0,1,4.29-8.09q4.29-2.83,13.74-2.83l4.69.1c1.44-2,.84-5.73-1.25-7.68-1.6-1.5-5.91-1.88-8.22-1.38s-6.38,3.05-8.63,4.63l-2.59-3.79A28,28,0,0,1,144,36,20,20,0,0,1,151.81,34.5Zm-3.13,29.36a18.17,18.17,0,0,0,5.35-.78,7.62,7.62,0,0,0,3.64-2.52l-.07-8.38L153.16,52c-3.19,0-5.86.6-7.33,1.87A6.34,6.34,0,0,0,143.51,59a5.39,5.39,0,0,0,1.22,3.69A5.75,5.75,0,0,0,148.68,63.86Z"/><path class="cls-3" d="M239.12,35.57h7.75v4.71a14.69,14.69,0,0,1,4.66-4,12.24,12.24,0,0,1,6-1.52,10.93,10.93,0,0,1,8.09,3.08c1.86,1.87,2.37,4.83,2.37,8.42V67.91H259.8V47.5c0-2.78,0-4.37-1-5.61a5.55,5.55,0,0,0-4.5-1.74,7.3,7.3,0,0,0-5.25,2.51,8.56,8.56,0,0,0-2.19,5.77V67.91h-7.75V35.57Z"/><path class="cls-3" d="M309.74,45.45c0,7.16-2.13,12.92-5.58,16.73s-8.31,5.73-14.56,5.73H272.71V24.41H289.6q9.38,0,14.56,5.4C307.61,33.41,309.74,38.45,309.74,45.45Zm-8.72.26c0-5.17-1.24-8.39-3.26-11.28s-5.87-4.51-10-4.51h-7.28V61.25h7.4a12,12,0,0,0,9.73-4.58C299.71,53.84,301,51.6,301,45.71Z"/><path class="cls-3" d="M335.5,67.91h-22V24.41h20.05c4.38,0,6.43.74,9,2.76a10.77,10.77,0,0,1,3.73,7,11,11,0,0,1-.95,6.31A12.14,12.14,0,0,1,340,45.1a12.3,12.3,0,0,1,6.51,4.3,10.11,10.11,0,0,1,1.65,6c-.14,4.17-1.14,6.65-3.51,9.07A12.24,12.24,0,0,1,335.5,67.91Zm3.07-31.33q0-3.81-1.87-5.61a6.94,6.94,0,0,0-5-1.79H321.6v14h10.47a6.75,6.75,0,0,0,4.6-1.67A6.26,6.26,0,0,0,338.57,36.58Zm1.9,18.32a5.55,5.55,0,0,0-2.08-4.79,7.77,7.77,0,0,0-5.15-1.74H321.6V63.14h11.64a7.56,7.56,0,0,0,5.11-1.82Q340.47,59.51,340.47,54.9Z"/><path class="cls-3" d="M220.23,36.51c-8.65,0-15.21,7-15.21,15.66s6.56,15.66,15.21,15.66a15.66,15.66,0,0,0,0-31.32Zm0,24.56a8.9,8.9,0,0,1,0-17.8,8.78,8.78,0,0,1,8.62,9A8.56,8.56,0,0,1,220.23,61.07Z"/><path class="cls-3" d="M194.14,24.08V40.27a16,16,0,0,0-10.3-3.45c-8.65,0-14.4,6.78-14.4,15.43s5.61,16,14.26,16A16.49,16.49,0,0,0,194.14,65v2.92h7.58V24.08Zm-9.5,38.7c-5.15,0-8.29-5.38-8.29-10.53s3.14-9.77,8.29-9.77,8.75,3.29,8.75,9.77C193.39,59.2,189.79,62.78,184.64,62.78Z"/></g></g></svg>